<svg width="16" height="16" viewBox="0 0 16 16" fill="none" xmlns="http://www.w3.org/2000/svg">
    <path d="M11.3374 12.2453C10.5418 12.6795 9.66293 12.9531 8.75422 13.0496V15.9985H7.24578V13.0496C5.71557 12.8842 4.28908 12.2223 3.20028 11.1725C2.11149 10.1227 1.42503 8.74722 1.25351 7.27177H2.77326C2.89085 8.05675 3.19697 8.8044 3.66725 9.45512C4.13753 10.1058 4.75895 10.6416 5.48198 11.0198C6.20501 11.398 7.00967 11.6081 7.83181 11.6334C8.65396 11.6586 9.47086 11.4984 10.2174 11.1654L9.04761 10.0382C8.48586 10.1948 7.89403 10.2233 7.31888 10.1215C6.74373 10.0196 6.20103 9.79023 5.73365 9.45137C5.26626 9.11251 4.88701 8.67349 4.62586 8.169C4.36471 7.66452 4.22881 7.10838 4.22891 6.54454V5.39115L0 1.3143L1.06722 0.285264L16 14.6844L14.9328 15.7127L11.3374 12.2453ZM5.76223 6.86961L7.66286 8.70223C7.18459 8.63258 6.74202 8.41707 6.4 8.08729C6.05797 7.7575 5.83447 7.33077 5.76223 6.86961ZM13.5624 10.297L12.474 9.24838C12.8579 8.65932 13.1196 7.99027 13.226 7.27177H14.7465C14.622 8.36018 14.2147 9.40072 13.5624 10.297ZM11.3676 8.18153L10.2001 7.05578C10.2408 6.89143 10.2627 6.72125 10.2627 6.54454V3.63562C10.2632 3.1227 10.0763 2.62601 9.73476 2.23276C9.39324 1.83952 8.91895 1.57487 8.39518 1.48528C7.87141 1.3957 7.33165 1.48692 6.8707 1.74291C6.40975 1.99891 6.05707 2.40332 5.87461 2.88511L4.7463 1.79645C5.16497 1.10748 5.80721 0.57056 6.57387 0.268578C7.34052 -0.0334035 8.18895 -0.0836512 8.98817 0.125593C9.78739 0.334838 10.493 0.791937 10.9959 1.42632C11.4989 2.0607 11.7713 2.83709 11.7711 3.63562V6.54454C11.772 7.11312 11.634 7.67392 11.3683 8.18153H11.3676Z" fill="white"/>
    <path d="M11.3374 12.2453C10.5418 12.6795 9.66293 12.9531 8.75422 13.0496V15.9985H7.24578V13.0496C5.71557 12.8842 4.28908 12.2223 3.20028 11.1725C2.11149 10.1227 1.42503 8.74722 1.25351 7.27177H2.77326C2.89085 8.05675 3.19697 8.8044 3.66725 9.45512C4.13753 10.1058 4.75895 10.6416 5.48198 11.0198C6.20501 11.398 7.00967 11.6081 7.83181 11.6334C8.65396 11.6586 9.47086 11.4984 10.2174 11.1654L9.04761 10.0382C8.48586 10.1948 7.89403 10.2233 7.31888 10.1215C6.74373 10.0196 6.20103 9.79023 5.73365 9.45137C5.26626 9.11251 4.88701 8.67349 4.62586 8.169C4.36471 7.66452 4.22881 7.10838 4.22891 6.54454V5.39115L0 1.3143L1.06722 0.285264L16 14.6844L14.9328 15.7127L11.3374 12.2453ZM5.76223 6.86961L7.66286 8.70223C7.18459 8.63258 6.74202 8.41707 6.4 8.08729C6.05797 7.7575 5.83447 7.33077 5.76223 6.86961ZM13.5624 10.297L12.474 9.24838C12.8579 8.65932 13.1196 7.99027 13.226 7.27177H14.7465C14.622 8.36018 14.2147 9.40072 13.5624 10.297ZM11.3676 8.18153L10.2001 7.05578C10.2408 6.89143 10.2627 6.72125 10.2627 6.54454V3.63562C10.2632 3.1227 10.0763 2.62601 9.73476 2.23276C9.39324 1.83952 8.91895 1.57487 8.39518 1.48528C7.87141 1.3957 7.33165 1.48692 6.8707 1.74291C6.40975 1.99891 6.05707 2.40332 5.87461 2.88511L4.7463 1.79645C5.16497 1.10748 5.80721 0.57056 6.57387 0.268578C7.34052 -0.0334035 8.18895 -0.0836512 8.98817 0.125593C9.78739 0.334838 10.493 0.791937 10.9959 1.42632C11.4989 2.0607 11.7713 2.83709 11.7711 3.63562V6.54454C11.772 7.11312 11.634 7.67392 11.3683 8.18153H11.3676Z" fill="#4E5D78"/>
</svg>
