<svg width="16" height="16" viewBox="0 0 16 16" fill="none" xmlns="http://www.w3.org/2000/svg">
    <path d="M8 12.772L3.43413 15.2914C3.28498 15.3737 3.10779 15.2438 3.14145 15.0768L4.16017 10.0218L0.324195 6.5252C0.197453 6.40967 0.265368 6.19866 0.435702 6.17875L5.62657 5.57186L7.81885 0.887098C7.89075 0.733457 8.10925 0.733457 8.18115 0.887098L10.3734 5.57186L15.5643 6.17875C15.7346 6.19866 15.8025 6.40967 15.6758 6.5252L11.8398 10.0218L12.8586 15.0768C12.8922 15.2438 12.715 15.3737 12.5659 15.2914L8 12.772ZM8 11.1882L10.977 12.8307L10.3117 9.53261L12.8163 7.24889L9.42855 6.85296L8 3.79947L6.57145 6.85365L3.18374 7.24889L5.68825 9.53261L5.02304 12.8307L8 11.1882Z" fill="white"/>
    <path d="M8 12.772L3.43413 15.2914C3.28498 15.3737 3.10779 15.2438 3.14145 15.0768L4.16017 10.0218L0.324195 6.5252C0.197453 6.40967 0.265368 6.19866 0.435702 6.17875L5.62657 5.57186L7.81885 0.887098C7.89075 0.733457 8.10925 0.733457 8.18115 0.887098L10.3734 5.57186L15.5643 6.17875C15.7346 6.19866 15.8025 6.40967 15.6758 6.5252L11.8398 10.0218L12.8586 15.0768C12.8922 15.2438 12.715 15.3737 12.5659 15.2914L8 12.772ZM8 11.1882L10.977 12.8307L10.3117 9.53261L12.8163 7.24889L9.42855 6.85296L8 3.79947L6.57145 6.85365L3.18374 7.24889L5.68825 9.53261L5.02304 12.8307L8 11.1882Z" fill="#4E5D78"/>
</svg>
